<?xml version="1.0" standalone="no"?>
<!DOCTYPE svg PUBLIC "-//W3C//DTD SVG 20010904//EN"
 "http://www.w3.org/TR/2001/REC-SVG-20010904/DTD/svg10.dtd">
<svg version="1.0" xmlns="http://www.w3.org/2000/svg"
 width="512.000000pt" height="512.000000pt" viewBox="0 0 512.000000 512.000000"
 preserveAspectRatio="xMidYMid meet">

<g transform="translate(0.000000,512.000000) scale(0.100000,-0.100000)"
fill="#000000" stroke="none">
<path d="M1122 3023 c-12 -10 -24 -30 -28 -45 -5 -22 0 -34 25 -59 30 -30 31
-33 31 -126 0 -71 3 -94 13 -91 8 3 13 34 15 98 3 85 5 94 27 112 35 27 34 79
-1 107 -33 26 -55 26 -82 4z m76 -55 c-4 -26 -30 -43 -52 -35 -21 8 -21 53 1
66 25 13 55 -5 51 -31z"/>
<path d="M1260 2898 c-27 -29 -25 -64 4 -93 16 -16 26 -39 28 -62 4 -47 22
-50 26 -4 2 22 14 44 33 62 37 34 38 71 3 98 -34 27 -68 27 -94 -1z m78 -20
c32 -32 -18 -87 -53 -58 -28 23 -12 70 25 70 9 0 21 -5 28 -12z"/>
<path d="M775 2685 c-31 -30 -32 -73 -5 -108 20 -25 27 -26 118 -29 96 -3 97
-3 97 -28 0 -25 -1 -25 -110 -30 -102 -5 -110 -7 -110 -25 0 -19 8 -20 111
-23 100 -2 113 -1 137 18 38 30 38 90 1 119 -23 18 -41 21 -116 21 -70 0 -90
3 -94 15 -14 35 14 45 122 45 104 0 119 5 108 34 -5 13 -25 16 -121 16 -108 0
-115 -1 -138 -25z"/>
<path d="M1400 2591 c0 -154 -1 -153 156 -149 104 3 109 4 112 26 3 22 2 22
-107 22 l-110 0 -3 108 c-3 102 -4 107 -25 110 -23 3 -23 2 -23 -117z"/>
<path d="M1700 2703 c0 -5 -2 -48 -4 -98 -5 -151 8 -165 148 -165 69 0 88 4
110 21 26 21 27 22 24 132 -3 104 -4 112 -23 112 -18 0 -20 -8 -25 -105 l-5
-105 -79 -3 c-44 -2 -83 1 -87 5 -4 4 -9 46 -10 93 -1 47 -3 93 -6 103 -4 16
-43 25 -43 10z"/>
<path d="M2034 2689 c-27 -30 -28 -199 -1 -226 25 -25 236 -33 256 -9 24 28 2
36 -103 36 -66 0 -106 4 -114 12 -12 12 -17 114 -6 142 5 13 25 16 114 16 109
0 125 5 114 34 -5 13 -25 16 -124 16 -106 0 -119 -2 -136 -21z"/>
<path d="M2327 2703 c-4 -3 -7 -59 -7 -123 0 -94 3 -120 16 -130 31 -26 39 6
36 138 -3 109 -5 122 -21 122 -10 0 -21 -3 -24 -7z"/>
<path d="M2432 2694 c-20 -14 -22 -23 -22 -118 0 -84 3 -106 17 -117 10 -9 50
-15 117 -17 91 -3 104 -2 129 18 26 21 27 25 27 114 0 84 -2 95 -23 114 -21
20 -34 22 -123 22 -74 0 -105 -4 -122 -16z m213 -119 l0 -80 -90 0 -90 0 -3
83 -3 83 93 -3 93 -3 0 -80z"/>
<path d="M2742 2698 c-15 -15 -17 -247 -2 -249 34 -6 35 -3 40 94 l5 98 78
-95 c79 -96 100 -112 131 -100 23 9 27 35 24 154 -3 100 -4 105 -25 108 -22 3
-22 0 -25 -100 l-3 -103 -85 102 c-85 102 -110 119 -138 91z"/>
<path d="M3067 2692 c-14 -15 -17 -40 -17 -120 0 -130 2 -132 151 -132 81 0
109 3 119 15 23 28 0 35 -111 35 l-109 0 0 30 0 29 103 3 c94 3 102 4 102 23
0 19 -8 20 -102 23 l-103 3 0 29 0 30 109 0 c111 0 134 7 111 35 -10 12 -39
15 -125 15 -96 0 -114 -3 -128 -18z"/>
<path d="M3377 2690 c-34 -27 -38 -89 -7 -120 17 -17 33 -20 115 -20 76 0 97
-3 101 -15 14 -35 -14 -45 -122 -45 -104 0 -127 -8 -104 -35 10 -11 37 -15
115 -15 88 0 106 3 129 21 35 27 36 86 3 117 -19 18 -37 22 -112 24 -89 3 -90
3 -90 28 0 25 1 25 110 30 102 5 110 7 110 25 0 19 -8 20 -111 23 -100 2 -113
1 -137 -18z"/>
<path d="M3760 2695 c-23 -28 0 -35 109 -35 84 0 111 -3 121 -15 10 -12 10
-18 0 -30 -9 -11 -40 -15 -118 -17 l-107 -3 -3 -69 c-3 -74 7 -98 33 -76 9 8
15 29 15 56 l0 44 38 0 c32 0 45 -8 92 -55 30 -30 62 -55 72 -55 34 0 30 23
-13 66 -28 28 -38 44 -27 44 8 0 27 9 42 21 34 27 37 88 4 119 -19 18 -35 20
-134 20 -85 0 -114 -3 -124 -15z"/>
<path d="M4065 2700 c-3 -5 22 -65 57 -132 59 -116 65 -123 93 -123 28 0 34 7
93 123 35 67 60 127 57 132 -3 6 -15 10 -25 10 -14 0 -32 -27 -69 -106 -28
-58 -54 -103 -58 -101 -5 3 -30 51 -58 106 -34 70 -55 101 -67 101 -9 0 -20
-4 -23 -10z"/>
<path d="M1080 2568 c-1 -90 -14 -214 -22 -217 -23 -8 -48 -43 -48 -66 0 -59
91 -90 124 -43 23 32 20 65 -9 94 -19 19 -25 35 -25 69 0 45 0 45 35 45 44 0
48 25 6 33 -27 6 -30 10 -33 53 -3 48 -28 76 -28 32z m31 -264 c17 -21 0 -49
-31 -49 -31 0 -48 28 -31 49 8 9 21 16 31 16 10 0 23 -7 31 -16z"/>
<path d="M1213 2346 c2 -99 1 -105 -22 -123 -49 -40 -19 -123 45 -123 60 0 86
81 39 122 -24 20 -25 27 -25 125 0 95 -1 103 -19 103 -18 0 -20 -7 -18 -104z
m47 -151 c26 -31 -13 -82 -44 -56 -19 16 -21 57 -3 64 22 9 34 7 47 -8z"/>
<path d="M1722 2353 c-11 -22 -3 -95 9 -87 5 3 9 16 9 29 0 13 6 26 13 28 9 4
8 8 -3 16 -10 7 -11 11 -2 11 6 0 12 5 12 10 0 17 -29 11 -38 -7z"/>
<path d="M1600 2309 c0 -43 2 -50 14 -40 11 9 15 9 19 -1 3 -7 6 2 6 20 1 29
4 33 23 30 16 -2 25 -12 29 -33 6 -29 7 -29 8 7 1 32 -3 39 -24 44 -15 4 -32
1 -40 -6 -12 -10 -15 -9 -15 9 0 11 -4 21 -10 21 -5 0 -10 -23 -10 -51z"/>
<path d="M2090 2326 c0 -19 3 -41 6 -50 7 -17 54 -22 54 -6 0 6 -9 10 -20 10
-29 0 -27 37 3 43 l22 4 -22 8 c-13 4 -23 11 -23 16 0 5 -4 9 -10 9 -5 0 -10
-15 -10 -34z"/>
<path d="M2742 2315 c3 -43 6 -50 26 -53 12 -2 22 1 22 7 0 6 -9 11 -20 11
-29 0 -27 37 3 43 21 3 21 4 2 12 -11 5 -23 13 -28 19 -4 6 -6 -11 -5 -39z"/>
<path d="M3140 2312 c0 -29 4 -52 9 -52 8 0 3 90 -5 99 -2 2 -4 -19 -4 -47z"/>
<path d="M3697 2353 c-9 -8 -9 -56 -1 -77 7 -18 39 -22 49 -6 3 6 -3 10 -14
10 -30 0 -28 37 2 43 21 3 21 4 2 12 -11 5 -23 12 -26 17 -3 5 -8 5 -12 1z"/>
<path d="M3840 2316 c0 -25 5 -48 10 -51 6 -4 10 13 10 44 0 28 -4 51 -10 51
-5 0 -10 -20 -10 -44z"/>
<path d="M4162 2315 c3 -43 6 -50 26 -53 27 -4 29 14 2 21 -11 3 -20 10 -20
17 0 7 9 14 20 17 11 3 20 10 20 15 0 5 -6 8 -12 5 -7 -2 -19 3 -26 12 -10 13
-12 8 -10 -34z"/>
<path d="M2390 2318 c0 -19 5 -39 12 -46 15 -15 48 -16 48 -2 0 6 -9 10 -20
10 -13 0 -20 7 -20 20 0 11 7 20 15 20 8 0 15 5 15 10 0 6 -4 10 -9 10 -5 0
-16 3 -25 6 -13 5 -16 -1 -16 -28z"/>
<path d="M1782 2328 c-14 -14 -16 -68 -2 -68 6 0 10 14 10 30 0 24 4 30 21 30
11 0 17 5 14 10 -8 14 -28 13 -43 -2z"/>
<path d="M1851 2331 c-11 -7 -6 -11 20 -14 l34 -4 -33 -1 c-29 -2 -33 -5 -30
-24 3 -26 50 -37 73 -18 9 7 15 8 20 0 8 -13 52 -13 60 0 4 6 -8 11 -27 11
-27 1 -29 3 -8 6 35 7 46 19 30 38 -16 19 -44 19 -61 -1 -11 -14 -13 -14 -21
0 -10 18 -35 21 -57 7z m122 -18 c-7 -2 -19 -2 -25 0 -7 3 -2 5 12 5 14 0 19
-2 13 -5z m-80 -30 c-7 -2 -21 -2 -30 0 -10 3 -4 5 12 5 17 0 24 -2 18 -5z"/>
<path d="M2013 2324 c-7 -19 5 -31 37 -37 21 -4 20 -4 -7 -6 -18 0 -33 -6 -33
-12 0 -6 14 -9 33 -7 41 4 46 38 7 49 -25 7 -25 7 3 8 35 1 26 21 -9 21 -14 0
-27 -7 -31 -16z"/>
<path d="M2173 2333 c-8 -3 -12 -20 -12 -41 1 -36 1 -36 8 -7 7 36 51 50 51
17 0 -26 24 -44 52 -40 18 2 24 10 26 36 2 18 -1 32 -7 32 -6 0 -11 -11 -11
-25 0 -18 -5 -25 -20 -25 -15 0 -20 7 -20 28 0 22 -5 27 -28 28 -15 1 -33 0
-39 -3z"/>
<path d="M2322 2331 c-8 -5 -12 -21 -10 -37 3 -30 26 -42 56 -28 13 6 11 8
-13 13 -17 4 -30 13 -30 21 0 9 13 17 30 20 25 5 27 7 12 13 -23 9 -29 9 -45
-2z"/>
<path d="M2464 2305 c1 -38 3 -40 34 -43 32 -3 32 -3 30 40 -1 37 -2 38 -5 11
-4 -27 -9 -33 -28 -33 -19 0 -25 6 -28 33 -4 26 -4 24 -3 -8z"/>
<path d="M2554 2326 c-3 -8 -4 -27 -1 -43 4 -27 4 -27 6 5 1 25 5 32 22 32 11
0 17 5 14 10 -9 15 -35 12 -41 -4z"/>
<path d="M2620 2330 c-11 -7 -7 -10 20 -11 l35 -1 -30 -7 c-44 -9 -42 -45 3
-49 31 -3 32 -2 32 31 0 43 -26 59 -60 37z m43 -47 c-7 -2 -21 -2 -30 0 -10 3
-4 5 12 5 17 0 24 -2 18 -5z"/>
<path d="M2812 2331 c-8 -4 -12 -21 -10 -37 2 -25 8 -29 36 -32 39 -4 43 15 5
21 l-28 4 28 2 c23 1 28 5 25 24 -3 23 -33 34 -56 18z m41 -18 c-7 -2 -19 -2
-25 0 -7 3 -2 5 12 5 14 0 19 -2 13 -5z"/>
<path d="M2892 2328 c-27 -27 -6 -68 35 -68 13 0 23 5 23 10 0 6 -11 10 -25
10 -18 0 -25 5 -25 20 0 15 7 20 26 20 14 0 23 4 19 10 -8 14 -38 13 -53 -2z"/>
<path d="M2973 2333 c-15 -6 -17 -59 -3 -68 6 -4 10 7 10 24 0 24 4 31 20 31
15 0 20 -7 20 -24 0 -14 5 -28 10 -31 14 -9 13 48 -2 63 -12 12 -33 14 -55 5z"/>
<path d="M3062 2331 c-8 -5 -12 -21 -10 -37 2 -21 9 -30 26 -32 46 -7 72 47
33 68 -24 12 -32 12 -49 1z m48 -31 c0 -21 -33 -29 -45 -10 -9 15 4 30 26 30
12 0 19 -7 19 -20z"/>
<path d="M3184 2332 c-17 -11 -22 -35 -12 -54 11 -22 56 -24 65 -3 5 14 8 14
22 2 9 -8 23 -17 31 -21 8 -3 5 -4 -7 -2 -13 2 -23 0 -23 -6 0 -5 15 -8 33 -6
30 3 32 6 35 45 3 38 1 43 -23 49 -17 4 -32 1 -43 -9 -15 -13 -19 -13 -30 -1
-14 15 -31 18 -48 6z m44 -35 c3 -12 -3 -17 -22 -17 -25 0 -35 18 -19 34 12
12 38 2 41 -17z m82 3 c0 -13 -7 -20 -20 -20 -13 0 -20 7 -20 20 0 13 7 20 20
20 13 0 20 -7 20 -20z"/>
<path d="M3347 2333 c-11 -10 -8 -61 3 -68 6 -4 10 10 10 34 0 42 -2 46 -13
34z"/>
<path d="M3380 2326 c-6 -8 -10 -25 -8 -38 2 -18 10 -24 36 -26 18 -2 32 1 32
7 0 6 -10 11 -23 11 -29 0 -37 7 -30 26 3 8 16 14 30 14 13 0 21 4 18 10 -9
15 -41 12 -55 -4z"/>
<path d="M3465 2331 c-4 -7 5 -11 22 -12 l28 -1 -30 -7 c-44 -9 -42 -45 3 -49
33 -3 33 -3 30 35 -2 30 -7 39 -25 41 -11 2 -24 -2 -28 -7z m40 -41 c3 -5 -3
-10 -14 -10 -12 0 -21 5 -21 10 0 6 6 10 14 10 8 0 18 -4 21 -10z"/>
<path d="M3583 2300 c0 -25 2 -35 4 -22 2 12 2 32 0 45 -2 12 -4 2 -4 -23z"/>
<path d="M3618 2329 c-19 -11 -25 -59 -8 -59 6 0 10 11 10 25 0 18 5 25 20 25
15 0 20 -7 20 -24 0 -14 5 -28 10 -31 6 -4 10 8 10 28 0 44 -25 58 -62 36z"/>
<path d="M3772 2331 c-8 -5 -12 -21 -10 -37 3 -31 26 -42 56 -28 13 6 9 9 -18
14 l-35 7 33 2 c24 1 32 6 32 20 0 26 -32 39 -58 22z m31 -18 c-7 -2 -19 -2
-25 0 -7 3 -2 5 12 5 14 0 19 -2 13 -5z"/>
<path d="M3913 2333 c-22 -8 -15 -59 10 -72 12 -6 14 -9 5 -7 -10 3 -20 1 -23
-4 -4 -6 9 -10 28 -10 37 0 47 12 47 55 0 32 -34 52 -67 38z m47 -33 c0 -21
-33 -29 -45 -10 -9 15 4 30 26 30 12 0 19 -7 19 -20z"/>
<path d="M4002 2331 c-8 -5 -12 -21 -10 -37 3 -31 26 -42 56 -28 13 6 9 9 -18
14 -32 7 -32 7 -7 9 31 1 48 28 26 42 -18 11 -30 11 -47 0z m41 -18 c-7 -2
-19 -2 -25 0 -7 3 -2 5 12 5 14 0 19 -2 13 -5z"/>
<path d="M4088 2333 c-13 -3 -18 -15 -18 -39 0 -19 5 -34 10 -34 6 0 10 14 10
30 0 23 4 30 20 30 15 0 20 -7 20 -25 0 -14 5 -25 10 -25 14 0 13 43 -2 58
-12 12 -20 13 -50 5z"/>
<path d="M4232 2328 c-27 -27 -6 -68 34 -68 37 0 39 20 2 21 -31 2 -31 2 -5 6
16 3 31 11 34 20 11 28 -41 45 -65 21z m41 -15 c-7 -2 -19 -2 -25 0 -7 3 -2 5
12 5 14 0 19 -2 13 -5z"/>
<path d="M3870 2308 c0 -13 5 -30 10 -38 7 -11 10 -5 10 23 0 20 -4 37 -10 37
-5 0 -10 -10 -10 -22z"/>
</g>
</svg>
